<svg width="25" height="25" viewBox="0 0 25 25" fill="none" xmlns="http://www.w3.org/2000/svg">
<path d="M20.251 12.7057V10.9987C20.251 6.55669 16.772 2.83769 12.496 2.70869C10.292 2.65769 8.24498 3.44469 6.67998 4.96469C5.11298 6.48469 4.25098 8.52369 4.25098 10.7057V12.7057C3.14798 12.7057 2.25098 13.6027 2.25098 14.7057V18.7057C2.25098 19.8087 3.14798 20.7057 4.25098 20.7057H6.25098V10.7057C6.25098 9.06869 6.89698 7.53969 8.07198 6.39969C9.24598 5.25969 10.807 4.66069 12.435 4.70869C15.643 4.80469 18.251 7.62669 18.251 10.9987V20.7057H20.251C21.354 20.7057 22.251 19.8087 22.251 18.7057V14.7057C22.251 13.6027 21.354 12.7057 20.251 12.7057Z" fill="white"/>
<path d="M7.25098 12.7057H9.25098V20.7057H7.25098V12.7057ZM15.251 12.7057H17.251V20.7057H15.251V12.7057Z" fill="white"/>
</svg>
