<svg width="174" height="238" viewBox="0 0 174 238" fill="none" xmlns="http://www.w3.org/2000/svg">
<g clip-path="url(#clip0_1_337)">
<g filter="url(#filter0_dddddd_1_337)">
<rect x="0.41748" y="0.9646" width="173.33" height="236.743" rx="15" fill="url(#paint0_linear_1_337)"/>
</g>
<g clip-path="url(#clip1_1_337)">
<path d="M96.0928 146.859C97.5581 154.826 98.8385 162.821 100.304 170.788C104.899 177.461 109.651 184.019 114.246 190.692C120.918 195.287 127.477 200.039 134.149 204.634C142.116 206.099 150.112 207.38 158.079 208.845C166.045 207.38 174.041 206.099 182.008 204.634C188.68 200.039 195.239 195.287 201.911 190.692C206.506 184.019 211.258 177.461 215.853 170.788C217.319 162.821 218.599 154.826 220.064 146.859C218.599 138.892 217.319 130.897 215.853 122.93C211.258 116.257 206.506 109.699 201.911 103.027C195.239 98.4314 188.68 93.6797 182.008 89.0845C174.055 87.6049 166.06 86.3245 158.093 84.8591C150.126 86.3245 142.13 87.6049 134.163 89.0702C127.491 93.6655 120.933 98.4172 114.26 103.012C109.665 109.685 104.913 116.243 100.318 122.916C98.8385 130.883 97.5581 138.892 96.0928 146.859ZM106.151 168.37C104.842 161.214 103.676 154.015 102.381 146.859C103.676 139.689 104.842 132.504 106.151 125.348C110.291 119.359 114.545 113.455 118.699 107.465C124.688 103.325 130.593 99.0574 136.582 94.9174C143.738 93.6086 150.937 92.442 158.093 91.1473C165.263 92.442 172.448 93.6086 179.604 94.9174C185.593 99.0574 191.497 103.311 197.487 107.465C201.626 113.455 205.895 119.359 210.034 125.348C211.343 132.504 212.51 139.703 213.805 146.859C212.496 154.015 211.329 161.214 210.02 168.37C205.88 174.359 201.626 180.263 197.472 186.253C191.483 190.393 185.579 194.661 179.589 198.801C172.433 200.11 165.235 201.276 158.079 202.571C150.908 201.276 143.724 200.11 136.568 198.801C130.578 194.661 124.674 190.407 118.685 186.253C114.559 180.263 110.291 174.359 106.151 168.37Z" fill="white" fill-opacity="0.05"/>
<path d="M151.164 146.859C151.292 147.755 151.42 148.666 151.563 149.562C152.103 150.288 152.644 151.028 153.199 151.753C153.924 152.294 154.65 152.849 155.39 153.389C156.286 153.517 157.196 153.659 158.093 153.787C158.989 153.659 159.9 153.531 160.796 153.389C161.521 152.849 162.261 152.308 162.987 151.753C163.527 151.028 164.082 150.302 164.623 149.562C164.751 148.666 164.893 147.755 165.021 146.859C164.893 145.963 164.765 145.052 164.623 144.156C164.082 143.43 163.542 142.691 162.987 141.965C162.261 141.424 161.536 140.87 160.796 140.329C159.9 140.201 158.989 140.059 158.093 139.931C157.196 140.059 156.286 140.187 155.39 140.329C154.664 140.87 153.924 141.41 153.199 141.965C152.658 142.691 152.103 143.416 151.563 144.156C151.435 145.052 151.292 145.949 151.164 146.859ZM156.926 147.343C156.898 147.186 156.883 147.016 156.855 146.859C156.883 146.703 156.898 146.532 156.926 146.375C157.026 146.247 157.125 146.119 157.225 145.977C157.353 145.877 157.481 145.778 157.623 145.692C157.78 145.664 157.95 145.65 158.107 145.621C158.263 145.65 158.434 145.664 158.591 145.692C158.719 145.792 158.847 145.892 158.989 145.977C159.089 146.105 159.188 146.233 159.274 146.375C159.302 146.532 159.316 146.703 159.345 146.859C159.316 147.016 159.302 147.186 159.274 147.343C159.174 147.471 159.074 147.599 158.989 147.741C158.861 147.841 158.733 147.94 158.591 148.04C158.434 148.068 158.263 148.083 158.107 148.111C157.95 148.083 157.78 148.068 157.623 148.04C157.495 147.94 157.367 147.841 157.225 147.741C157.111 147.599 157.026 147.471 156.926 147.343Z" fill="white" fill-opacity="0.05"/>
<path d="M111.315 146.859C112.397 152.877 113.392 158.909 114.474 164.927C117.973 169.949 121.53 174.914 125.016 179.936C130.038 183.422 135.003 186.993 140.025 190.478C146.043 191.559 152.075 192.541 158.093 193.636C164.111 192.555 170.143 191.559 176.161 190.478C181.183 186.978 186.148 183.422 191.17 179.936C194.655 174.914 198.226 169.949 201.712 164.927C202.793 158.909 203.775 152.877 204.87 146.859C203.789 140.841 202.793 134.809 201.712 128.791C198.212 123.769 194.655 118.804 191.17 113.782C186.148 110.296 181.183 106.726 176.161 103.24C170.143 102.159 164.111 101.177 158.093 100.082C152.075 101.163 146.043 102.159 140.025 103.24C135.003 106.74 130.038 110.296 125.016 113.782C121.53 118.804 117.959 123.769 114.474 128.791C113.392 134.809 112.411 140.841 111.315 146.859ZM144.051 152.664C143.752 150.729 143.468 148.794 143.197 146.845C143.468 144.91 143.752 142.961 144.051 141.026C145.203 139.447 146.37 137.868 147.551 136.303C149.116 135.122 150.681 133.955 152.274 132.803C154.209 132.504 156.144 132.22 158.093 131.949C160.028 132.22 161.977 132.504 163.911 132.803C165.491 133.955 167.07 135.122 168.635 136.303C169.816 137.868 170.982 139.433 172.134 141.026C172.433 142.961 172.718 144.896 172.988 146.845C172.718 148.78 172.433 150.729 172.134 152.664C170.982 154.243 169.816 155.822 168.635 157.387C167.07 158.568 165.505 159.734 163.911 160.887C161.977 161.185 160.042 161.47 158.093 161.74C156.158 161.47 154.209 161.185 152.274 160.887C150.695 159.734 149.116 158.568 147.551 157.387C146.384 155.822 145.218 154.243 144.051 152.664ZM129.625 148.04C129.597 147.841 129.611 147.855 129.639 148.097C129.682 148.396 129.682 148.367 129.625 148.011C129.625 148.026 129.625 148.026 129.625 148.04ZM138.801 167.815C138.645 167.701 138.659 167.701 138.858 167.858C139.1 168.043 139.072 168.028 138.787 167.801C138.787 167.801 138.801 167.815 138.801 167.815ZM159.274 175.312C159.074 175.341 159.089 175.327 159.33 175.298C159.629 175.256 159.601 175.256 159.245 175.312C159.259 175.312 159.259 175.312 159.274 175.312ZM179.049 166.15C178.935 166.307 178.935 166.293 179.091 166.094C179.276 165.852 179.262 165.88 179.034 166.165C179.034 166.165 179.049 166.15 179.049 166.15ZM186.546 145.678C186.575 145.877 186.575 145.863 186.532 145.621C186.489 145.323 186.489 145.351 186.546 145.707C186.546 145.692 186.546 145.678 186.546 145.678ZM177.384 125.903C177.541 126.017 177.526 126.017 177.327 125.86C177.085 125.676 177.114 125.69 177.398 125.917C177.398 125.903 177.384 125.903 177.384 125.903ZM156.912 118.391C157.111 118.363 157.097 118.377 156.841 118.406C156.542 118.448 156.57 118.448 156.926 118.391C156.926 118.391 156.912 118.391 156.912 118.391ZM137.137 127.568C137.251 127.411 137.251 127.425 137.094 127.625C136.909 127.866 136.923 127.838 137.151 127.553C137.137 127.553 137.137 127.568 137.137 127.568ZM129.625 145.707C129.668 145.351 129.682 145.308 129.639 145.621C129.611 145.863 129.611 145.877 129.625 145.678C129.625 145.678 129.625 145.692 129.625 145.707ZM137.151 166.165C136.923 165.88 136.909 165.852 137.094 166.094C137.251 166.293 137.251 166.307 137.137 166.15C137.137 166.15 137.137 166.165 137.151 166.165ZM156.94 175.312C156.585 175.27 156.542 175.256 156.855 175.298C157.097 175.327 157.111 175.327 156.926 175.312C156.912 175.312 156.926 175.312 156.94 175.312ZM177.398 167.801C177.114 168.028 177.085 168.043 177.327 167.858C177.526 167.701 177.541 167.701 177.384 167.815C177.384 167.815 177.398 167.801 177.398 167.801ZM186.546 148.011C186.503 148.367 186.489 148.41 186.532 148.097C186.56 147.855 186.56 147.841 186.546 148.04C186.546 148.026 186.546 148.026 186.546 148.011ZM179.034 127.553C179.262 127.838 179.276 127.866 179.091 127.625C178.935 127.425 178.935 127.411 179.049 127.568C179.049 127.568 179.034 127.553 179.034 127.553ZM159.245 118.391C159.601 118.434 159.643 118.448 159.33 118.406C159.089 118.377 159.074 118.377 159.274 118.391C159.259 118.391 159.259 118.391 159.245 118.391ZM138.787 125.917C139.072 125.69 139.1 125.676 138.858 125.86C138.659 126.017 138.645 126.017 138.801 125.903C138.801 125.903 138.787 125.903 138.787 125.917ZM129.767 146.859C129.696 147.044 129.654 147.243 129.625 147.457C129.582 147.67 129.597 147.883 129.639 148.097C129.639 148.268 129.682 148.424 129.753 148.581C129.924 148.95 130.038 149.235 130.336 149.519C131.005 150.174 131.873 150.231 132.755 150.16C134.96 149.946 137.037 149.15 139.1 148.41C139.342 150.145 139.598 151.881 139.854 153.617C134.548 154.428 126.538 155.096 125.77 148.538C125.699 147.94 125.699 147.385 125.77 146.873C125.699 146.361 125.699 145.806 125.77 145.209C126.538 138.65 134.548 139.319 139.854 140.13C139.584 141.865 139.342 143.601 139.1 145.337C137.023 144.597 134.96 143.8 132.755 143.587C131.873 143.502 131.005 143.573 130.336 144.227C130.038 144.512 129.924 144.796 129.753 145.166C129.682 145.323 129.639 145.479 129.639 145.65C129.597 145.863 129.582 146.077 129.625 146.29C129.654 146.475 129.696 146.674 129.767 146.859ZM138.062 126.828C137.877 126.913 137.706 127.013 137.535 127.155C137.35 127.269 137.208 127.425 137.094 127.61C136.98 127.738 136.881 127.866 136.838 128.023C136.71 128.407 136.582 128.677 136.582 129.104C136.596 130.029 137.165 130.698 137.848 131.267C139.555 132.675 141.59 133.571 143.567 134.525C142.514 135.919 141.462 137.327 140.423 138.736C136.098 135.563 129.967 130.37 134.05 125.178C134.419 124.708 134.818 124.324 135.23 124.011C135.543 123.598 135.928 123.2 136.397 122.83C141.576 118.733 146.768 124.879 149.955 129.204C148.547 130.242 147.138 131.281 145.744 132.348C144.805 130.356 143.909 128.336 142.486 126.629C141.917 125.946 141.248 125.377 140.324 125.363C139.911 125.363 139.626 125.476 139.242 125.619C139.086 125.676 138.944 125.761 138.83 125.875C138.645 125.988 138.503 126.131 138.375 126.316C138.246 126.472 138.147 126.643 138.062 126.828ZM158.093 118.534C157.908 118.463 157.709 118.42 157.495 118.391C157.282 118.349 157.068 118.363 156.855 118.406C156.684 118.406 156.528 118.448 156.371 118.519C156.001 118.69 155.717 118.804 155.432 119.103C154.778 119.771 154.721 120.639 154.792 121.521C155.006 123.726 155.802 125.804 156.542 127.866C154.806 128.108 153.071 128.364 151.335 128.62C150.524 123.314 149.855 115.304 156.414 114.536C157.011 114.465 157.566 114.465 158.078 114.536C158.591 114.465 159.145 114.465 159.743 114.536C166.302 115.304 165.633 123.314 164.822 128.62C163.086 128.35 161.351 128.108 159.615 127.866C160.355 125.789 161.151 123.726 161.365 121.521C161.45 120.639 161.379 119.771 160.725 119.103C160.44 118.804 160.156 118.69 159.786 118.519C159.629 118.448 159.473 118.406 159.302 118.406C159.089 118.363 158.875 118.349 158.662 118.391C158.477 118.42 158.278 118.463 158.093 118.534ZM178.124 126.828C178.039 126.643 177.939 126.472 177.797 126.301C177.683 126.117 177.526 125.974 177.341 125.86C177.213 125.747 177.085 125.647 176.929 125.604C176.545 125.476 176.274 125.348 175.848 125.348C174.923 125.363 174.254 125.932 173.685 126.614C172.277 128.322 171.38 130.356 170.427 132.334C169.033 131.281 167.625 130.228 166.216 129.19C169.389 124.865 174.581 118.733 179.774 122.816C180.244 123.186 180.628 123.584 180.941 123.997C181.353 124.31 181.752 124.694 182.122 125.163C186.219 130.342 180.073 135.535 175.748 138.721C174.71 137.313 173.657 135.905 172.604 134.51C174.596 133.571 176.616 132.675 178.323 131.252C179.006 130.683 179.575 130.029 179.589 129.09C179.589 128.677 179.475 128.393 179.333 128.009C179.276 127.852 179.191 127.71 179.077 127.596C178.963 127.411 178.807 127.269 178.636 127.141C178.465 127.013 178.309 126.913 178.124 126.828ZM186.418 146.859C186.489 146.674 186.532 146.475 186.56 146.262C186.603 146.048 186.589 145.835 186.546 145.621C186.546 145.451 186.503 145.294 186.432 145.138C186.262 144.768 186.148 144.483 185.849 144.199C185.18 143.544 184.313 143.487 183.43 143.558C181.225 143.772 179.148 144.569 177.085 145.308C176.844 143.573 176.587 141.837 176.331 140.101C181.638 139.29 189.648 138.622 190.416 145.18C190.487 145.778 190.487 146.333 190.416 146.845C190.487 147.357 190.487 147.912 190.416 148.509C189.648 155.068 181.638 154.399 176.331 153.588C176.602 151.853 176.844 150.117 177.085 148.381C179.162 149.121 181.225 149.918 183.43 150.131C184.313 150.217 185.18 150.145 185.849 149.491C186.148 149.206 186.262 148.922 186.432 148.552C186.503 148.396 186.546 148.239 186.546 148.068C186.589 147.855 186.603 147.642 186.56 147.428C186.532 147.243 186.489 147.044 186.418 146.859ZM178.124 166.89C178.309 166.805 178.48 166.705 178.65 166.563C178.835 166.449 178.978 166.293 179.091 166.108C179.205 165.98 179.305 165.852 179.347 165.695C179.475 165.311 179.603 165.041 179.603 164.614C179.589 163.689 179.02 163.021 178.337 162.452C176.63 161.043 174.596 160.147 172.618 159.194C173.671 157.799 174.724 156.391 175.762 154.983C180.087 158.155 186.219 163.348 182.136 168.541C181.766 169.01 181.368 169.394 180.955 169.707C180.642 170.12 180.258 170.518 179.788 170.888C174.61 174.985 169.417 168.839 166.23 164.514C167.639 163.476 169.047 162.437 170.441 161.37C171.38 163.362 172.277 165.382 173.699 167.089C174.268 167.772 174.937 168.341 175.862 168.356C176.274 168.356 176.559 168.242 176.943 168.1C177.1 168.043 177.242 167.957 177.356 167.843C177.541 167.73 177.683 167.573 177.811 167.402C177.925 167.232 178.039 167.075 178.124 166.89ZM158.093 175.184C158.278 175.256 158.477 175.298 158.69 175.327C158.904 175.369 159.117 175.355 159.33 175.312C159.501 175.312 159.658 175.27 159.814 175.199C160.184 175.028 160.469 174.914 160.753 174.615C161.408 173.947 161.464 173.079 161.393 172.197C161.18 169.992 160.383 167.915 159.643 165.852C161.379 165.61 163.115 165.354 164.85 165.098C165.661 170.404 166.33 178.414 159.771 179.182C159.174 179.253 158.619 179.253 158.107 179.182C157.595 179.253 157.04 179.253 156.442 179.182C149.884 178.414 150.553 170.404 151.363 165.098C153.099 165.368 154.835 165.61 156.57 165.852C155.831 167.929 155.034 169.992 154.821 172.197C154.735 173.079 154.806 173.947 155.461 174.615C155.745 174.914 156.03 175.028 156.4 175.199C156.556 175.27 156.713 175.312 156.883 175.312C157.097 175.355 157.31 175.369 157.524 175.327C157.709 175.298 157.908 175.256 158.093 175.184ZM138.062 166.89C138.147 167.075 138.246 167.246 138.389 167.417C138.503 167.602 138.659 167.744 138.844 167.858C138.972 167.972 139.1 168.071 139.257 168.114C139.641 168.242 139.911 168.37 140.338 168.37C141.263 168.356 141.931 167.787 142.5 167.104C143.909 165.396 144.805 163.362 145.758 161.385C147.152 162.437 148.561 163.49 149.969 164.529C146.797 168.854 141.604 174.985 136.411 170.902C135.942 170.532 135.558 170.134 135.245 169.721C134.832 169.408 134.434 169.024 134.064 168.555C129.967 163.376 136.112 158.184 140.437 154.997C141.476 156.405 142.529 157.814 143.581 159.208C141.59 160.147 139.57 161.043 137.862 162.466C137.179 163.035 136.61 163.703 136.596 164.628C136.596 165.041 136.71 165.325 136.852 165.709C136.909 165.866 136.995 166.008 137.108 166.122C137.222 166.307 137.379 166.449 137.549 166.577C137.706 166.691 137.877 166.805 138.062 166.89ZM120.52 146.859C120.42 147.713 120.449 148.637 120.605 149.648C121.615 155.765 126.894 157.401 132.47 157.472C128.572 161.47 125.997 166.35 129.611 171.4C130.208 172.225 130.849 172.894 131.517 173.435C132.044 174.103 132.727 174.743 133.552 175.341C138.602 178.955 143.482 176.379 147.48 172.481C147.551 178.058 149.187 183.336 155.304 184.346C156.314 184.517 157.239 184.531 158.093 184.432C158.946 184.531 159.871 184.503 160.881 184.346C166.999 183.336 168.635 178.058 168.706 172.481C172.704 176.379 177.583 178.955 182.634 175.341C183.459 174.743 184.128 174.103 184.668 173.435C185.337 172.908 185.977 172.225 186.575 171.4C190.188 166.35 187.613 161.47 183.715 157.472C189.292 157.401 194.57 155.765 195.58 149.648C195.751 148.637 195.765 147.713 195.665 146.859C195.765 146.005 195.737 145.081 195.58 144.071C194.57 137.953 189.292 136.317 183.715 136.246C187.613 132.248 190.188 127.368 186.575 122.318C185.977 121.493 185.337 120.824 184.668 120.284C184.142 119.615 183.459 118.975 182.634 118.377C177.583 114.764 172.704 117.339 168.706 121.237C168.635 115.66 166.999 110.382 160.881 109.372C159.871 109.201 158.946 109.187 158.093 109.286C157.239 109.187 156.314 109.215 155.304 109.372C149.187 110.382 147.551 115.66 147.48 121.237C143.482 117.339 138.602 114.764 133.552 118.377C132.727 118.975 132.058 119.615 131.517 120.284C130.849 120.81 130.208 121.493 129.611 122.318C125.997 127.368 128.572 132.248 132.47 136.246C126.894 136.317 121.615 137.953 120.605 144.071C120.449 145.081 120.42 146.005 120.52 146.859ZM118.13 163.405C117.148 157.899 116.238 152.365 115.256 146.859C116.238 141.339 117.148 135.819 118.13 130.313C121.331 125.718 124.589 121.166 127.79 116.57C132.385 113.369 136.938 110.111 141.533 106.91C147.039 105.929 152.573 105.018 158.078 104.037C163.598 105.018 169.118 105.929 174.624 106.91C179.219 110.111 183.772 113.369 188.367 116.57C191.568 121.166 194.826 125.718 198.027 130.313C199.009 135.819 199.919 141.353 200.901 146.859C199.919 152.365 199.009 157.899 198.027 163.405C194.826 168 191.568 172.553 188.367 177.148C183.772 180.349 179.219 183.607 174.624 186.808C169.118 187.789 163.584 188.7 158.078 189.681C152.559 188.7 147.039 187.789 141.533 186.808C136.938 183.607 132.385 180.349 127.79 177.148C124.603 172.553 121.331 168 118.13 163.405Z" fill="white" fill-opacity="0.05"/>
</g>
<g clip-path="url(#clip2_1_337)">
<path d="M-40.2769 234.637C-39.3197 239.905 -38.4833 245.192 -37.5261 250.461C-34.5243 254.873 -31.4204 259.21 -28.4187 263.623C-24.0601 266.661 -19.7759 269.804 -15.4174 272.842C-10.2132 273.811 -4.99037 274.658 0.213849 275.627C5.41807 274.658 10.6409 273.811 15.8451 272.842C20.2036 269.804 24.4878 266.661 28.8464 263.623C31.8481 259.21 34.952 254.873 37.9538 250.461C38.911 245.192 39.7473 239.905 40.7046 234.637C39.7473 229.368 38.911 224.081 37.9538 218.812C34.952 214.4 31.8481 210.063 28.8464 205.651C24.4878 202.612 20.2036 199.47 15.8451 196.431C10.6502 195.452 5.42737 194.606 0.223145 193.637C-4.98108 194.606 -10.2039 195.452 -15.4081 196.421C-19.7666 199.46 -24.0508 202.602 -28.4094 205.641C-31.4111 210.054 -34.515 214.391 -37.5168 218.803C-38.4833 224.071 -39.3197 229.368 -40.2769 234.637ZM-33.7065 248.861C-34.5615 244.129 -35.3236 239.369 -36.1692 234.637C-35.3236 229.895 -34.5615 225.144 -33.7065 220.412C-31.0022 216.451 -28.2235 212.547 -25.5099 208.586C-21.5974 205.848 -17.7407 203.026 -13.8283 200.288C-9.15375 199.423 -4.45136 198.651 0.223145 197.795C4.90694 198.651 9.60004 199.423 14.2745 200.288C18.187 203.026 22.0437 205.839 25.9562 208.586C28.6605 212.547 31.4485 216.451 34.1528 220.412C35.0078 225.144 35.7698 229.904 36.6155 234.637C35.7605 239.369 34.9985 244.129 34.1435 248.861C31.4392 252.822 28.6605 256.727 25.9469 260.687C22.0344 263.425 18.1777 266.247 14.2652 268.985C9.59074 269.851 4.88836 270.622 0.213849 271.478C-4.46995 270.622 -9.16304 269.851 -13.8375 268.985C-17.75 266.247 -21.6067 263.434 -25.5192 260.687C-28.2142 256.727 -31.0022 252.822 -33.7065 248.861Z" fill="white" fill-opacity="0.03"/>
<path d="M-4.30273 234.637C-4.2191 235.229 -4.13545 235.831 -4.04252 236.424C-3.68938 236.904 -3.33624 237.393 -2.9738 237.873C-2.49984 238.23 -2.02589 238.597 -1.54264 238.955C-0.957161 239.04 -0.362392 239.134 0.223083 239.218C0.808559 239.134 1.40332 239.049 1.9888 238.955C2.46276 238.597 2.94601 238.24 3.41996 237.873C3.77311 237.393 4.13554 236.913 4.48868 236.424C4.57232 235.831 4.66526 235.229 4.7489 234.637C4.66526 234.044 4.58162 233.442 4.48868 232.849C4.13554 232.369 3.7824 231.88 3.41996 231.4C2.94601 231.043 2.47205 230.676 1.9888 230.318C1.40332 230.234 0.808559 230.14 0.223083 230.055C-0.362392 230.14 -0.957161 230.224 -1.54264 230.318C-2.01659 230.676 -2.49984 231.033 -2.9738 231.4C-3.32694 231.88 -3.68938 232.36 -4.04252 232.849C-4.12616 233.442 -4.2191 234.035 -4.30273 234.637ZM-0.538967 234.956C-0.557553 234.853 -0.566846 234.74 -0.585432 234.637C-0.566846 234.533 -0.557553 234.42 -0.538967 234.317C-0.473914 234.232 -0.408858 234.147 -0.343806 234.053C-0.260166 233.987 -0.176528 233.922 -0.0835957 233.865C0.0186301 233.846 0.130149 233.837 0.232375 233.818C0.334601 233.837 0.44612 233.846 0.548346 233.865C0.631985 233.931 0.715623 233.997 0.808556 234.053C0.873609 234.138 0.938662 234.223 0.994422 234.317C1.01301 234.42 1.0223 234.533 1.04089 234.637C1.0223 234.74 1.01301 234.853 0.994422 234.956C0.929369 235.041 0.864316 235.126 0.808556 235.22C0.724917 235.286 0.641279 235.352 0.548346 235.417C0.44612 235.436 0.334601 235.446 0.232375 235.465C0.130149 235.446 0.0186301 235.436 -0.0835957 235.417C-0.167235 235.352 -0.250873 235.286 -0.343806 235.22C-0.418152 235.126 -0.473914 235.041 -0.538967 234.956Z" fill="white" fill-opacity="0.03"/>
<path d="M-30.333 234.637C-29.6267 238.616 -28.9762 242.605 -28.2699 246.585C-25.9838 249.906 -23.6605 253.189 -21.3836 256.51C-18.1031 258.815 -14.8597 261.176 -11.5792 263.481C-7.64818 264.196 -3.70784 264.846 0.223207 265.57C4.15425 264.855 8.09459 264.196 12.0256 263.481C15.3062 261.167 18.5495 258.815 21.83 256.51C24.1069 253.189 26.4395 249.906 28.7163 246.585C29.4226 242.605 30.0638 238.616 30.7794 234.637C30.0731 230.657 29.4226 226.668 28.7163 222.688C26.4302 219.367 24.1069 216.084 21.83 212.763C18.5495 210.458 15.3062 208.097 12.0256 205.792C8.09459 205.077 4.15425 204.428 0.223207 203.703C-3.70784 204.418 -7.64818 205.077 -11.5792 205.792C-14.8597 208.106 -18.1031 210.458 -21.3836 212.763C-23.6605 216.084 -25.9931 219.367 -28.2699 222.688C-28.9762 226.668 -29.6174 230.657 -30.333 234.637ZM-8.94924 238.475C-9.14439 237.196 -9.33026 235.916 -9.50683 234.627C-9.33026 233.348 -9.14439 232.059 -8.94924 230.779C-8.19648 229.735 -7.43444 228.691 -6.6631 227.656C-5.64084 226.875 -4.61858 226.104 -3.57773 225.341C-2.31385 225.144 -1.04997 224.956 0.223207 224.777C1.48709 224.956 2.76026 225.144 4.02414 225.341C5.05569 226.104 6.08725 226.875 7.10951 227.656C7.88085 228.691 8.64289 229.726 9.39565 230.779C9.5908 232.059 9.77667 233.338 9.95324 234.627C9.77667 235.907 9.5908 237.196 9.39565 238.475C8.64289 239.519 7.88085 240.564 7.10951 241.598C6.08725 242.379 5.06499 243.151 4.02414 243.913C2.76026 244.11 1.49638 244.299 0.223207 244.477C-1.04068 244.299 -2.31385 244.11 -3.57773 243.913C-4.60928 243.151 -5.64084 242.379 -6.6631 241.598C-7.42514 240.564 -8.18719 239.519 -8.94924 238.475ZM-18.3726 235.417C-18.3912 235.286 -18.3819 235.295 -18.3633 235.455C-18.3354 235.653 -18.3354 235.634 -18.3726 235.399C-18.3726 235.408 -18.3726 235.408 -18.3726 235.417ZM-12.3784 248.495C-12.4807 248.419 -12.4714 248.419 -12.3413 248.523C-12.1833 248.645 -12.2019 248.636 -12.3877 248.485C-12.3877 248.485 -12.3784 248.495 -12.3784 248.495ZM0.994545 253.453C0.864439 253.471 0.873733 253.462 1.03172 253.443C1.22688 253.415 1.20829 253.415 0.975958 253.453C0.985251 253.453 0.985251 253.453 0.994545 253.453ZM13.9122 247.394C13.8378 247.497 13.8378 247.488 13.94 247.356C14.0609 247.196 14.0516 247.215 13.9029 247.403C13.9029 247.403 13.9122 247.394 13.9122 247.394ZM18.8097 233.856C18.8283 233.987 18.8283 233.978 18.8004 233.818C18.7725 233.621 18.7725 233.639 18.8097 233.875C18.8097 233.865 18.8097 233.856 18.8097 233.856ZM12.8249 220.779C12.9271 220.854 12.9178 220.854 12.7877 220.75C12.6297 220.628 12.6483 220.637 12.8341 220.788C12.8341 220.779 12.8249 220.779 12.8249 220.779ZM-0.548135 215.811C-0.41803 215.792 -0.427322 215.802 -0.594601 215.821C-0.789759 215.849 -0.771175 215.849 -0.538843 215.811C-0.538843 215.811 -0.548135 215.811 -0.548135 215.811ZM-13.4658 221.879C-13.3914 221.776 -13.3914 221.785 -13.4936 221.917C-13.6144 222.077 -13.6052 222.058 -13.4565 221.87C-13.4658 221.87 -13.4658 221.879 -13.4658 221.879ZM-18.3726 233.875C-18.3447 233.639 -18.3354 233.611 -18.3633 233.818C-18.3819 233.978 -18.3819 233.987 -18.3726 233.856C-18.3726 233.856 -18.3726 233.865 -18.3726 233.875ZM-13.4565 247.403C-13.6052 247.215 -13.6144 247.196 -13.4936 247.356C-13.3914 247.488 -13.3914 247.497 -13.4658 247.394C-13.4658 247.394 -13.4658 247.403 -13.4565 247.403ZM-0.529548 253.453C-0.76188 253.424 -0.789761 253.415 -0.585309 253.443C-0.427324 253.462 -0.418031 253.462 -0.538843 253.453C-0.548137 253.453 -0.538841 253.453 -0.529548 253.453ZM12.8341 248.485C12.6483 248.636 12.6297 248.645 12.7877 248.523C12.9178 248.419 12.9271 248.419 12.8249 248.495C12.8249 248.495 12.8341 248.485 12.8341 248.485ZM18.8097 235.399C18.7818 235.634 18.7725 235.662 18.8004 235.455C18.819 235.295 18.819 235.286 18.8097 235.417C18.8097 235.408 18.8097 235.408 18.8097 235.399ZM13.9029 221.87C14.0516 222.058 14.0609 222.077 13.94 221.917C13.8378 221.785 13.8378 221.776 13.9122 221.879C13.9122 221.879 13.9029 221.87 13.9029 221.87ZM0.975958 215.811C1.20829 215.839 1.23617 215.849 1.03172 215.821C0.873733 215.802 0.864439 215.802 0.994545 215.811C0.985251 215.811 0.985251 215.811 0.975958 215.811ZM-12.3877 220.788C-12.2019 220.637 -12.1833 220.628 -12.3413 220.75C-12.4714 220.854 -12.4807 220.854 -12.3784 220.779C-12.3784 220.779 -12.3877 220.779 -12.3877 220.788ZM-18.2797 234.637C-18.3261 234.759 -18.354 234.891 -18.3726 235.032C-18.4005 235.173 -18.3912 235.314 -18.3633 235.455C-18.3633 235.568 -18.3354 235.671 -18.289 235.775C-18.1774 236.02 -18.1031 236.208 -17.9079 236.396C-17.4711 236.829 -16.9043 236.866 -16.3281 236.819C-14.8876 236.678 -13.5308 236.151 -12.1833 235.662C-12.0253 236.81 -11.858 237.958 -11.6907 239.105C-15.1571 239.642 -20.3892 240.084 -20.8911 235.747C-20.9375 235.352 -20.9375 234.985 -20.8911 234.646C-20.9375 234.307 -20.9375 233.94 -20.8911 233.545C-20.3892 229.208 -15.1571 229.65 -11.6907 230.187C-11.8673 231.334 -12.0253 232.482 -12.1833 233.63C-13.5401 233.141 -14.8876 232.614 -16.3281 232.473C-16.9043 232.416 -17.4711 232.463 -17.9079 232.896C-18.1031 233.084 -18.1774 233.272 -18.289 233.517C-18.3354 233.621 -18.3633 233.724 -18.3633 233.837C-18.3912 233.978 -18.4005 234.119 -18.3726 234.26C-18.354 234.383 -18.3261 234.514 -18.2797 234.637ZM-12.8617 221.39C-12.9825 221.447 -13.094 221.512 -13.2055 221.607C-13.3264 221.682 -13.4193 221.785 -13.4936 221.908C-13.568 221.992 -13.633 222.077 -13.6609 222.18C-13.7446 222.434 -13.8282 222.613 -13.8282 222.895C-13.8189 223.507 -13.4472 223.949 -13.0011 224.325C-11.8859 225.257 -10.557 225.85 -9.26521 226.48C-9.95291 227.402 -10.6406 228.333 -11.319 229.265C-14.1442 227.167 -18.1496 223.733 -15.4824 220.299C-15.2408 219.988 -14.9806 219.734 -14.711 219.527C-14.5066 219.255 -14.2557 218.991 -13.949 218.746C-10.5663 216.037 -7.17422 220.101 -5.09253 222.961C-6.01257 223.648 -6.9326 224.335 -7.84334 225.04C-8.45669 223.723 -9.04217 222.387 -9.97149 221.258C-10.3432 220.807 -10.78 220.431 -11.3841 220.421C-11.6536 220.421 -11.8394 220.496 -12.0904 220.59C-12.1926 220.628 -12.2855 220.685 -12.3599 220.76C-12.4807 220.835 -12.5736 220.929 -12.6572 221.051C-12.7409 221.155 -12.8059 221.268 -12.8617 221.39ZM0.223207 215.905C0.102394 215.858 -0.0277131 215.83 -0.167112 215.811C-0.306511 215.783 -0.44591 215.792 -0.585309 215.821C-0.696828 215.821 -0.799054 215.849 -0.90128 215.896C-1.1429 216.009 -1.32877 216.084 -1.51463 216.282C-1.94212 216.724 -1.9793 217.298 -1.93283 217.881C-1.79343 219.339 -1.27301 220.713 -0.789758 222.077C-1.92353 222.237 -3.05731 222.406 -4.19109 222.576C-4.7208 219.066 -5.15759 213.77 -0.873398 213.262C-0.483081 213.215 -0.120646 213.215 0.213911 213.262C0.548468 213.215 0.910907 213.215 1.30122 213.262C5.58541 213.77 5.14863 219.066 4.61891 222.576C3.48514 222.397 2.35136 222.237 1.21758 222.077C1.70083 220.703 2.22126 219.339 2.36065 217.881C2.41641 217.298 2.36995 216.724 1.94246 216.282C1.75659 216.084 1.57073 216.009 1.3291 215.896C1.22688 215.849 1.12465 215.821 1.01313 215.821C0.873733 215.792 0.734333 215.783 0.594934 215.811C0.474122 215.83 0.344019 215.858 0.223207 215.905ZM13.3081 221.39C13.2523 221.268 13.1873 221.155 13.0944 221.042C13.02 220.92 12.9178 220.826 12.797 220.75C12.7133 220.675 12.6297 220.609 12.5275 220.581C12.2766 220.496 12.1 220.412 11.8212 220.412C11.2171 220.421 10.7803 220.797 10.4086 221.249C9.48858 222.378 8.9031 223.723 8.28045 225.031C7.36972 224.335 6.44968 223.639 5.52965 222.952C7.60205 220.092 10.9941 216.037 14.3861 218.737C14.6928 218.982 14.9437 219.245 15.1482 219.518C15.4177 219.725 15.6779 219.979 15.9195 220.289C18.596 223.714 14.5813 227.148 11.7561 229.255C11.0777 228.324 10.39 227.392 9.70232 226.47C11.0034 225.85 12.323 225.257 13.4382 224.316C13.8843 223.94 14.256 223.507 14.2653 222.886C14.2653 222.613 14.191 222.425 14.098 222.171C14.0609 222.068 14.0051 221.973 13.9308 221.898C13.8564 221.776 13.7542 221.682 13.6427 221.597C13.5311 221.512 13.4289 221.447 13.3081 221.39ZM18.7261 234.637C18.7725 234.514 18.8004 234.383 18.819 234.241C18.8469 234.1 18.8376 233.959 18.8097 233.818C18.8097 233.705 18.7818 233.602 18.7354 233.498C18.6238 233.254 18.5495 233.065 18.3543 232.877C17.9176 232.445 17.3507 232.407 16.7745 232.454C15.334 232.595 13.9772 233.122 12.6297 233.611C12.4717 232.463 12.3044 231.316 12.1372 230.168C15.6035 229.632 20.8356 229.189 21.3375 233.526C21.3839 233.922 21.3839 234.288 21.3375 234.627C21.3839 234.966 21.3839 235.333 21.3375 235.728C20.8356 240.065 15.6035 239.623 12.1372 239.087C12.3137 237.939 12.4717 236.791 12.6297 235.643C13.9865 236.132 15.334 236.659 16.7745 236.8C17.3507 236.857 17.9176 236.81 18.3543 236.377C18.5495 236.189 18.6238 236.001 18.7354 235.756C18.7818 235.653 18.8097 235.549 18.8097 235.436C18.8376 235.295 18.8469 235.154 18.819 235.013C18.8004 234.891 18.7725 234.759 18.7261 234.637ZM13.3081 247.883C13.4289 247.827 13.5404 247.761 13.652 247.667C13.7728 247.591 13.8657 247.488 13.94 247.366C14.0144 247.281 14.0794 247.196 14.1073 247.093C14.191 246.839 14.2746 246.66 14.2746 246.378C14.2653 245.766 13.8936 245.324 13.4475 244.948C12.3323 244.016 11.0034 243.424 9.71162 242.793C10.3993 241.871 11.087 240.94 11.7654 240.009C14.5906 242.107 18.596 245.54 15.9288 248.974C15.6872 249.285 15.427 249.539 15.1575 249.746C14.953 250.019 14.7021 250.282 14.3954 250.527C11.0127 253.236 7.62063 249.172 5.53894 246.312C6.45898 245.625 7.37901 244.938 8.28975 244.233C8.9031 245.55 9.48858 246.886 10.4179 248.015C10.7896 248.466 11.2264 248.843 11.8305 248.852C12.1 248.852 12.2858 248.777 12.5368 248.683C12.639 248.645 12.7319 248.589 12.8063 248.513C12.9271 248.438 13.02 248.335 13.1037 248.222C13.178 248.109 13.2523 248.005 13.3081 247.883ZM0.223207 253.368C0.344019 253.415 0.474123 253.443 0.613521 253.462C0.75292 253.49 0.89232 253.481 1.03172 253.453C1.14324 253.453 1.24546 253.424 1.34769 253.377C1.58931 253.264 1.77518 253.189 1.96104 252.992C2.38853 252.549 2.42571 251.975 2.37924 251.392C2.23984 249.934 1.71942 248.56 1.23617 247.196C2.36994 247.036 3.50372 246.867 4.6375 246.698C5.16722 250.207 5.604 255.503 1.31981 256.012C0.92949 256.059 0.567055 256.059 0.232498 256.012C-0.102059 256.059 -0.464498 256.059 -0.854814 256.012C-5.139 255.503 -4.70222 250.207 -4.1725 246.698C-3.03873 246.876 -1.90495 247.036 -0.771175 247.196C-1.25442 248.57 -1.77485 249.934 -1.91424 251.392C-1.97 251.975 -1.92354 252.549 -1.49605 252.992C-1.31018 253.189 -1.12432 253.264 -0.882693 253.377C-0.780467 253.424 -0.678241 253.453 -0.566722 253.453C-0.427323 253.481 -0.287924 253.49 -0.148525 253.462C-0.0277127 253.443 0.102394 253.415 0.223207 253.368ZM-12.8617 247.883C-12.8059 248.005 -12.7409 248.118 -12.6479 248.231C-12.5736 248.353 -12.4714 248.447 -12.3506 248.523C-12.2669 248.598 -12.1833 248.664 -12.0811 248.692C-11.8301 248.777 -11.6536 248.861 -11.3748 248.861C-10.7707 248.852 -10.3339 248.476 -9.9622 248.024C-9.04217 246.895 -8.45669 245.55 -7.83405 244.242C-6.92331 244.938 -6.00328 245.635 -5.08324 246.321C-7.15564 249.181 -10.5477 253.236 -13.9397 250.536C-14.2464 250.291 -14.4973 250.028 -14.7018 249.755C-14.9713 249.548 -15.2315 249.294 -15.4731 248.984C-18.1496 245.559 -14.1349 242.125 -11.3097 240.018C-10.6313 240.949 -9.94361 241.881 -9.25591 242.803C-10.557 243.424 -11.8766 244.016 -12.9918 244.957C-13.4379 245.333 -13.8096 245.776 -13.8189 246.387C-13.8189 246.66 -13.7446 246.848 -13.6516 247.102C-13.6144 247.206 -13.5587 247.3 -13.4843 247.375C-13.41 247.497 -13.3078 247.591 -13.1963 247.676C-13.094 247.751 -12.9825 247.827 -12.8617 247.883ZM-24.3203 234.637C-24.3853 235.201 -24.3667 235.813 -24.2645 236.481C-23.6047 240.526 -20.1569 241.608 -16.5139 241.655C-19.0603 244.299 -20.7424 247.526 -18.3819 250.865C-17.9916 251.411 -17.5734 251.853 -17.1366 252.211C-16.7927 252.653 -16.3467 253.076 -15.8077 253.471C-12.5085 255.861 -9.32097 254.158 -6.70956 251.58C-6.6631 255.268 -5.59437 258.759 -1.59827 259.427C-0.938453 259.54 -0.334389 259.549 0.223207 259.483C0.780802 259.549 1.38486 259.53 2.04468 259.427C6.04078 258.759 7.10951 255.268 7.15597 251.58C9.76738 254.158 12.955 255.861 16.2541 253.471C16.7931 253.076 17.2299 252.653 17.583 252.211C18.0198 251.863 18.438 251.411 18.8283 250.865C21.1888 247.526 19.5067 244.299 16.9604 241.655C20.6033 241.608 24.0511 240.526 24.7109 236.481C24.8224 235.813 24.8317 235.201 24.7667 234.637C24.8317 234.072 24.8132 233.461 24.7109 232.793C24.0511 228.747 20.6033 227.665 16.9604 227.618C19.5067 224.975 21.1888 221.748 18.8283 218.408C18.438 217.862 18.0198 217.42 17.583 217.062C17.2391 216.62 16.7931 216.197 16.2541 215.802C12.955 213.412 9.76738 215.115 7.15597 217.693C7.10951 214.005 6.04078 210.515 2.04468 209.847C1.38486 209.734 0.780802 209.724 0.223207 209.79C-0.334389 209.724 -0.938453 209.743 -1.59827 209.847C-5.59437 210.515 -6.6631 214.005 -6.70956 217.693C-9.32097 215.115 -12.5085 213.412 -15.8077 215.802C-16.3467 216.197 -16.7834 216.62 -17.1366 217.062C-17.5734 217.411 -17.9916 217.862 -18.3819 218.408C-20.7424 221.748 -19.0603 224.975 -16.5139 227.618C-20.1569 227.665 -23.6047 228.747 -24.2645 232.793C-24.3667 233.461 -24.3853 234.072 -24.3203 234.637ZM-25.8815 245.578C-26.5228 241.937 -27.1175 238.277 -27.7588 234.637C-27.1175 230.986 -26.5228 227.336 -25.8815 223.695C-23.7906 220.656 -21.6624 217.646 -19.5714 214.607C-16.5697 212.49 -13.5959 210.336 -10.5941 208.219C-6.99765 207.57 -3.38258 206.968 0.213911 206.319C3.81969 206.968 7.42548 207.57 11.022 208.219C14.0237 210.336 16.9975 212.49 19.9992 214.607C22.0902 217.646 24.2184 220.656 26.3094 223.695C26.9506 227.336 27.5454 230.996 28.1866 234.637C27.5454 238.277 26.9506 241.937 26.3094 245.578C24.2184 248.617 22.0902 251.627 19.9992 254.666C16.9975 256.783 14.0237 258.937 11.022 261.054C7.42548 261.703 3.8104 262.305 0.213911 262.955C-3.39187 262.305 -6.99765 261.703 -10.5941 261.054C-13.5959 258.937 -16.5697 256.783 -19.5714 254.666C-21.6531 251.627 -23.7906 248.617 -25.8815 245.578Z" fill="white" fill-opacity="0.03"/>
</g>
</g>
<defs>
<filter id="filter0_dddddd_1_337" x="-79.5825" y="0.9646" width="333.33" height="416.743" filterUnits="userSpaceOnUse" color-interpolation-filters="sRGB">
<feFlood flood-opacity="0" result="BackgroundImageFix"/>
<feColorMatrix in="SourceAlpha" type="matrix" values="0 0 0 0 0 0 0 0 0 0 0 0 0 0 0 0 0 0 127 0" result="hardAlpha"/>
<feOffset dy="2.76726"/>
<feGaussianBlur stdDeviation="1.1069"/>
<feColorMatrix type="matrix" values="0 0 0 0 0 0 0 0 0 0 0 0 0 0 0 0 0 0 0.0196802 0"/>
<feBlend mode="normal" in2="BackgroundImageFix" result="effect1_dropShadow_1_337"/>
<feColorMatrix in="SourceAlpha" type="matrix" values="0 0 0 0 0 0 0 0 0 0 0 0 0 0 0 0 0 0 127 0" result="hardAlpha"/>
<feOffset dy="6.6501"/>
<feGaussianBlur stdDeviation="2.66004"/>
<feColorMatrix type="matrix" values="0 0 0 0 0 0 0 0 0 0 0 0 0 0 0 0 0 0 0.0282725 0"/>
<feBlend mode="normal" in2="effect1_dropShadow_1_337" result="effect2_dropShadow_1_337"/>
<feColorMatrix in="SourceAlpha" type="matrix" values="0 0 0 0 0 0 0 0 0 0 0 0 0 0 0 0 0 0 127 0" result="hardAlpha"/>
<feOffset dy="12.5216"/>
<feGaussianBlur stdDeviation="5.00862"/>
<feColorMatrix type="matrix" values="0 0 0 0 0 0 0 0 0 0 0 0 0 0 0 0 0 0 0.035 0"/>
<feBlend mode="normal" in2="effect2_dropShadow_1_337" result="effect3_dropShadow_1_337"/>
<feColorMatrix in="SourceAlpha" type="matrix" values="0 0 0 0 0 0 0 0 0 0 0 0 0 0 0 0 0 0 127 0" result="hardAlpha"/>
<feOffset dy="22.3363"/>
<feGaussianBlur stdDeviation="8.93452"/>
<feColorMatrix type="matrix" values="0 0 0 0 0 0 0 0 0 0 0 0 0 0 0 0 0 0 0.0417275 0"/>
<feBlend mode="normal" in2="effect3_dropShadow_1_337" result="effect4_dropShadow_1_337"/>
<feColorMatrix in="SourceAlpha" type="matrix" values="0 0 0 0 0 0 0 0 0 0 0 0 0 0 0 0 0 0 127 0" result="hardAlpha"/>
<feOffset dy="41.7776"/>
<feGaussianBlur stdDeviation="16.711"/>
<feColorMatrix type="matrix" values="0 0 0 0 0 0 0 0 0 0 0 0 0 0 0 0 0 0 0.0503198 0"/>
<feBlend mode="normal" in2="effect4_dropShadow_1_337" result="effect5_dropShadow_1_337"/>
<feColorMatrix in="SourceAlpha" type="matrix" values="0 0 0 0 0 0 0 0 0 0 0 0 0 0 0 0 0 0 127 0" result="hardAlpha"/>
<feOffset dy="100"/>
<feGaussianBlur stdDeviation="40"/>
<feColorMatrix type="matrix" values="0 0 0 0 0 0 0 0 0 0 0 0 0 0 0 0 0 0 0.07 0"/>
<feBlend mode="normal" in2="effect5_dropShadow_1_337" result="effect6_dropShadow_1_337"/>
<feBlend mode="normal" in="SourceGraphic" in2="effect6_dropShadow_1_337" result="shape"/>
</filter>
<linearGradient id="paint0_linear_1_337" x1="170.608" y1="-7.60476" x2="-72.6512" y2="312.473" gradientUnits="userSpaceOnUse">
<stop stop-color="#191919"/>
<stop offset="1" stop-color="#212121"/>
</linearGradient>
<clipPath id="clip0_1_337">
<rect x="0.41748" y="0.9646" width="173.33" height="236.743" rx="15" fill="white"/>
</clipPath>
<clipPath id="clip1_1_337">
<rect width="124" height="124" fill="white" transform="translate(96.0928 84.8591)"/>
</clipPath>
<clipPath id="clip2_1_337">
<rect width="81" height="82" fill="white" transform="translate(-40.2769 193.637)"/>
</clipPath>
</defs>
</svg>
