<svg width="1263" height="348" viewBox="0 0 1263 348" fill="none" xmlns="http://www.w3.org/2000/svg">
<g clip-path="url(#clip0_1_368)">
<g clip-path="url(#clip1_1_368)">
<rect x="0.922363" y="0.423096" width="1261.9" height="346.973" rx="21" fill="url(#paint0_linear_1_368)"/>
</g>
<g clip-path="url(#clip2_1_368)">
<path d="M-64.9956 274.23C-48.4394 289.277 -31.5264 303.821 -14.2208 317.862C-16.5758 340.127 -18.3242 362.463 -19.466 384.872C2.79925 383.723 24.9931 381.963 47.1157 379.593C61.0671 397.01 75.5538 414.068 90.4687 430.694C105.419 414.032 119.87 397.01 133.822 379.593C155.944 381.963 178.138 383.723 200.403 384.872C199.262 362.463 197.513 340.127 195.158 317.862C212.464 303.821 229.412 289.241 245.933 274.23C229.377 259.184 212.464 244.64 195.158 230.598C197.513 208.334 199.262 185.997 200.403 163.589C178.138 164.738 155.944 166.497 133.822 168.867C119.906 151.415 105.419 134.393 90.5044 117.73C75.5538 134.393 61.1028 151.415 47.1514 168.832C25.0288 166.461 2.83493 164.702 -19.4303 163.553C-18.2885 185.961 -16.5401 208.298 -14.1851 230.562C-31.5264 244.64 -48.4394 259.184 -64.9956 274.23ZM61.7808 286.189C61.7094 286.117 61.6024 286.081 61.531 286.009C61.7094 286.045 61.8878 286.045 62.0662 286.081C61.9592 286.224 61.8521 286.368 61.7451 286.512C61.7451 286.404 61.7451 286.296 61.7808 286.189ZM61.7808 262.236C61.7808 262.128 61.7451 262.02 61.7451 261.913C61.8521 262.056 61.9592 262.2 62.0662 262.344C61.8878 262.38 61.7094 262.38 61.531 262.416C61.6024 262.38 61.6737 262.308 61.7808 262.236ZM78.5868 245.322C78.6581 245.25 78.6938 245.142 78.7652 245.071C78.7295 245.25 78.7295 245.43 78.6938 245.609C78.5511 245.501 78.4084 245.394 78.2656 245.286C78.4084 245.286 78.4797 245.286 78.5868 245.322ZM102.386 245.322C102.493 245.322 102.6 245.286 102.707 245.286C102.565 245.394 102.422 245.501 102.279 245.609C102.244 245.43 102.244 245.25 102.208 245.071C102.279 245.142 102.351 245.214 102.386 245.322ZM119.228 262.236C119.299 262.308 119.406 262.344 119.478 262.416C119.299 262.38 119.121 262.38 118.943 262.344C119.05 262.2 119.157 262.056 119.264 261.913C119.264 262.056 119.228 262.128 119.228 262.236ZM119.228 286.189C119.228 286.296 119.264 286.404 119.264 286.512C119.157 286.368 119.05 286.224 118.943 286.081C119.121 286.045 119.299 286.045 119.478 286.009C119.406 286.081 119.299 286.153 119.228 286.189ZM102.386 303.139C102.315 303.21 102.279 303.318 102.208 303.39C102.244 303.21 102.244 303.031 102.279 302.851C102.422 302.959 102.565 303.067 102.707 303.174C102.6 303.174 102.493 303.139 102.386 303.139ZM78.5868 303.139C78.4797 303.139 78.3727 303.174 78.2656 303.174C78.4084 303.067 78.5511 302.959 78.6938 302.851C78.7295 303.031 78.7295 303.21 78.7652 303.39C78.7295 303.318 78.6581 303.21 78.5868 303.139ZM77.0525 279.832C67.6325 278.683 58.2126 277.534 48.8284 276.349C47.9363 275.631 47.0086 274.948 46.1166 274.23C47.0086 273.512 47.9363 272.83 48.8284 272.111C58.2483 270.926 67.6682 269.741 77.0525 268.628C71.2007 261.123 65.3489 253.581 59.5328 246.04C59.3901 244.891 59.2474 243.742 59.1047 242.629C60.2465 242.772 61.3883 242.916 62.4944 243.06C69.9875 248.913 77.4806 254.802 84.9381 260.692C86.0799 251.211 87.2217 241.731 88.3992 232.286C89.1128 231.388 89.7908 230.455 90.5044 229.557C91.218 230.455 91.896 231.388 92.6096 232.286C93.7871 241.767 94.9646 251.247 96.0707 260.692C103.528 254.802 111.021 248.913 118.514 243.06C119.656 242.916 120.798 242.772 121.904 242.629C121.761 243.778 121.619 244.927 121.476 246.04C115.66 253.581 109.808 261.123 103.956 268.628C113.376 269.777 122.796 270.926 132.18 272.111C133.072 272.83 134 273.512 134.892 274.23C134 274.948 133.072 275.631 132.18 276.349C122.76 277.534 113.341 278.719 103.956 279.832C109.808 287.338 115.66 294.879 121.476 302.42C121.619 303.569 121.761 304.719 121.904 305.832C120.762 305.688 119.62 305.545 118.514 305.401C111.021 299.547 103.528 293.658 96.0707 287.769C94.9289 297.249 93.7871 306.73 92.6096 316.174C91.896 317.072 91.218 318.006 90.5044 318.903C89.7908 318.006 89.1128 317.072 88.3992 316.174C87.2217 306.694 86.0442 297.213 84.9381 287.769C77.4806 293.658 69.9875 299.547 62.4944 305.401C61.3526 305.545 60.2108 305.688 59.1047 305.832C59.2474 304.683 59.3901 303.534 59.5328 302.42C65.3489 294.879 71.2007 287.338 77.0525 279.832ZM25.2786 274.23C32.8074 280.227 40.3719 286.117 48.0077 291.934C46.6875 301.487 45.4743 311.039 44.3682 320.627C53.8952 319.514 63.3864 318.293 72.8777 316.964C78.6581 324.649 84.5099 332.298 90.4687 339.84C96.4275 332.298 102.279 324.649 108.06 316.964C117.551 318.293 127.042 319.514 136.569 320.627C135.463 311.039 134.25 301.487 132.93 291.934C140.566 286.117 148.166 280.227 155.659 274.23C148.166 268.233 140.566 262.344 132.93 256.526C134.25 246.974 135.463 237.421 136.569 227.833C127.042 228.946 117.551 230.167 108.06 231.496C102.279 223.811 96.4275 216.162 90.4687 208.621C84.5099 216.198 78.6581 223.811 72.8777 231.496C63.3864 230.167 53.8952 228.946 44.3682 227.833C45.4743 237.421 46.6875 246.974 48.0077 256.526C40.3719 262.308 32.7717 268.233 25.2786 274.23ZM1.33631 311.398C-13.7926 299.368 -28.6005 286.979 -43.1585 274.23C-28.6005 261.482 -13.7926 249.093 1.33631 237.062C-0.911626 217.778 -2.6957 198.458 -4.01592 179.102C15.2164 180.431 34.4131 182.226 53.574 184.489C65.5273 169.262 77.8375 154.359 90.5044 139.708C103.171 154.359 115.481 169.262 127.435 184.489C146.596 182.226 165.792 180.431 185.025 179.102C183.704 198.458 181.92 217.778 179.672 237.062C194.801 249.093 209.609 261.482 224.167 274.23C209.609 286.979 194.801 299.368 179.672 311.398C181.92 330.682 183.704 350.002 185.025 369.358C165.792 368.03 146.596 366.234 127.435 363.972C115.481 379.198 103.171 394.101 90.5044 408.753C77.8375 394.101 65.5273 379.198 53.574 363.972C34.4131 366.234 15.2164 368.03 -4.01592 369.358C-2.6957 349.966 -0.911626 330.646 1.33631 311.398Z" fill="url(#paint1_linear_1_368)" fill-opacity="0.3"/>
<path d="M-19.1804 274.23C-19.1447 277.354 -18.11 280.479 -16.0761 282.992C-15.8977 283.244 -15.6836 283.531 -15.4339 283.782C-15.1841 284.034 -14.9343 284.249 -14.6489 284.429C-9.40369 288.666 -1.58944 288.774 3.37029 283.782C5.868 281.269 7.18821 277.749 7.29526 274.23C7.18821 270.675 5.83231 267.156 3.37029 264.678C-1.58944 259.686 -9.40369 259.794 -14.6489 264.031C-14.8986 264.211 -15.1841 264.426 -15.4339 264.678C-15.6836 264.929 -15.8977 265.181 -16.0761 265.468C-18.0743 267.982 -19.1447 271.106 -19.1804 274.23ZM12.9329 196.16C10.7564 198.386 9.3291 201.331 8.97229 204.563C8.90092 204.886 8.86524 205.209 8.90092 205.568C8.90092 205.927 8.9366 206.251 8.97229 206.574C9.68592 213.325 15.1809 218.927 22.1744 218.963C25.6712 218.963 29.0967 217.419 31.6657 215.013C34.0921 212.427 35.5907 208.98 35.5907 205.461C35.5907 198.422 29.9887 192.892 23.2806 192.174C22.9594 192.102 22.6383 192.066 22.2815 192.102C21.9247 192.102 21.6035 192.138 21.2824 192.174C18.1068 192.533 15.1452 194.005 12.9329 196.16ZM90.5045 163.84C87.4002 163.876 84.2959 164.917 81.7982 166.964C81.5485 167.144 81.263 167.359 81.0132 167.61C80.7635 167.862 80.5494 168.113 80.371 168.401C76.1606 173.679 76.0535 181.544 81.0132 186.536C83.5109 189.049 87.0077 190.378 90.5045 190.486C94.037 190.378 97.5338 189.013 99.9958 186.536C104.956 181.544 104.848 173.679 100.638 168.401C100.46 168.149 100.246 167.862 99.9958 167.61C99.746 167.359 99.4963 167.144 99.2108 166.964C96.6774 164.953 93.5731 163.876 90.5045 163.84ZM168.04 196.16C165.828 193.969 162.902 192.533 159.691 192.174C159.37 192.102 159.049 192.066 158.692 192.102C158.335 192.102 158.014 192.138 157.693 192.174C150.985 192.892 145.418 198.422 145.383 205.461C145.383 208.98 146.917 212.427 149.308 215.013C151.877 217.455 155.302 218.963 158.799 218.963C165.793 218.963 171.287 213.325 172.001 206.574C172.072 206.251 172.108 205.927 172.072 205.568C172.072 205.209 172.037 204.886 172.001 204.563C171.644 201.367 170.217 198.386 168.04 196.16ZM200.154 274.23C200.118 271.106 199.083 267.982 197.05 265.468C196.871 265.216 196.657 264.929 196.407 264.678C196.157 264.426 195.908 264.211 195.622 264.031C190.377 259.794 182.563 259.686 177.603 264.678C175.105 267.192 173.785 270.711 173.678 274.23C173.785 277.785 175.141 281.305 177.603 283.782C182.563 288.774 190.377 288.666 195.622 284.429C195.872 284.249 196.157 284.034 196.407 283.782C196.657 283.531 196.871 283.28 197.05 282.992C199.083 280.443 200.154 277.318 200.154 274.23ZM168.04 352.265C170.217 350.038 171.644 347.093 172.001 343.862C172.072 343.538 172.108 343.215 172.072 342.856C172.072 342.497 172.037 342.174 172.001 341.85C171.287 335.099 165.793 329.497 158.799 329.461C155.302 329.461 151.877 331.005 149.308 333.411C146.881 335.997 145.383 339.444 145.383 342.964C145.383 350.002 150.985 355.533 157.693 356.251C158.014 356.323 158.335 356.359 158.692 356.323C159.049 356.323 159.37 356.287 159.691 356.251C162.902 355.892 165.828 354.455 168.04 352.265ZM90.5045 384.585C93.6088 384.549 96.7131 383.507 99.2108 381.46C99.4606 381.281 99.746 381.065 99.9958 380.814C100.246 380.563 100.46 380.311 100.638 380.024C104.848 374.745 104.956 366.88 99.9958 361.889C97.4981 359.375 94.0013 358.046 90.5045 357.939C86.9721 358.046 83.4753 359.411 81.0132 361.889C76.0535 366.88 76.1606 374.745 80.371 380.024C80.5494 380.275 80.7635 380.563 81.0132 380.814C81.263 381.065 81.5128 381.281 81.7982 381.46C84.2959 383.507 87.4002 384.585 90.5045 384.585ZM12.9329 352.265C15.1452 354.455 18.0711 355.892 21.2824 356.251C21.6035 356.323 21.9247 356.359 22.2815 356.323C22.6383 356.323 22.9594 356.287 23.2806 356.251C29.9887 355.533 35.555 350.002 35.5907 342.964C35.5907 339.444 34.0564 335.997 31.6657 333.411C29.0967 330.969 25.6712 329.461 22.1744 329.461C15.1809 329.461 9.68592 335.099 8.97229 341.85C8.90092 342.174 8.86524 342.497 8.90092 342.856C8.90092 343.215 8.9366 343.538 8.97229 343.862C9.3291 347.093 10.792 350.038 12.9329 352.265ZM-0.554677 274.23C-1.0899 278.109 -5.87122 281.664 -9.72482 278.073C-10.8666 276.816 -11.2948 275.487 -11.2234 274.23C-11.2948 272.973 -10.8666 271.645 -9.72482 270.388C-5.87122 266.797 -1.05422 270.352 -0.554677 274.23ZM26.1351 209.447C23.0308 211.817 17.1433 210.919 16.9649 205.604C17.0363 203.916 17.6786 202.66 18.6063 201.834C19.427 200.9 20.6758 200.254 22.3528 200.182C27.5623 200.397 28.4901 206.323 26.1351 209.447ZM90.5045 182.585C86.6509 182.047 83.1184 177.235 86.6866 173.356C87.9355 172.207 89.2557 171.776 90.5045 171.848C91.7534 171.776 93.0736 172.207 94.3225 173.356C97.8906 177.235 94.3581 182.083 90.5045 182.585ZM154.874 209.447C152.519 206.323 153.411 200.397 158.692 200.218C160.369 200.289 161.618 200.9 162.438 201.87C163.366 202.696 164.008 203.952 164.08 205.64C163.866 210.883 157.943 211.817 154.874 209.447ZM181.528 274.23C182.063 270.352 186.845 266.797 190.698 270.388C191.84 271.645 192.268 272.973 192.197 274.23C192.268 275.487 191.84 276.816 190.698 278.073C186.88 281.664 182.063 278.109 181.528 274.23ZM154.874 339.014C157.978 336.643 163.866 337.541 164.044 342.856C163.973 344.544 163.366 345.801 162.403 346.627C161.582 347.56 160.333 348.207 158.656 348.279C153.411 348.063 152.519 342.102 154.874 339.014ZM90.5045 365.839C94.3581 366.378 97.8906 371.19 94.3225 375.068C93.0736 376.217 91.7534 376.648 90.5045 376.576C89.2557 376.648 87.9355 376.217 86.6866 375.068C83.1184 371.226 86.6509 366.378 90.5045 365.839ZM26.1351 339.014C28.4901 342.138 27.598 348.063 22.3172 348.243C20.6401 348.207 19.3913 347.56 18.5706 346.627C17.6429 345.801 17.0006 344.544 16.9293 342.856C17.1433 337.541 23.0308 336.643 26.1351 339.014Z" fill="url(#paint2_linear_1_368)" fill-opacity="0.3"/>
</g>
<g clip-path="url(#clip3_1_368)">
<path d="M456.871 0.423101C466.187 8.83579 475.704 16.9674 485.442 24.8179C484.116 37.2663 483.133 49.7548 482.49 62.2835C495.019 61.641 507.507 60.6571 519.956 59.332C527.806 69.0698 535.958 78.6069 544.351 87.903C552.763 78.5868 560.895 69.0698 568.745 59.332C581.194 60.6571 593.682 61.641 606.211 62.2835C605.568 49.7548 604.585 37.2663 603.259 24.8179C612.997 16.9674 622.534 8.81571 631.83 0.423101C622.514 -7.98959 612.997 -16.1212 603.259 -23.9717C604.585 -36.4201 605.568 -48.9086 606.211 -61.4373C593.682 -60.7948 581.194 -59.811 568.745 -58.4858C560.915 -68.2437 552.763 -77.7607 544.371 -87.0769C535.958 -77.7607 527.826 -68.2437 519.976 -58.5059C507.527 -59.831 495.039 -60.8149 482.51 -61.4574C483.153 -48.9287 484.137 -36.4401 485.462 -23.9918C475.704 -16.1212 466.187 -7.98959 456.871 0.423101ZM528.208 7.10908C528.168 7.06892 528.107 7.04884 528.067 7.00869C528.168 7.02877 528.268 7.02877 528.368 7.04884C528.308 7.12916 528.248 7.20947 528.188 7.28978C528.188 7.22954 528.188 7.16931 528.208 7.10908ZM528.208 -6.28296C528.208 -6.34319 528.188 -6.40343 528.188 -6.46366C528.248 -6.38335 528.308 -6.30304 528.368 -6.22273C528.268 -6.20265 528.168 -6.20265 528.067 -6.18257C528.107 -6.20265 528.148 -6.2428 528.208 -6.28296ZM537.665 -15.7397C537.705 -15.7799 537.725 -15.8401 537.765 -15.8803C537.745 -15.7799 537.745 -15.6795 537.725 -15.5791C537.644 -15.6393 537.564 -15.6996 537.484 -15.7598C537.564 -15.7598 537.604 -15.7598 537.665 -15.7397ZM551.057 -15.7397C551.117 -15.7397 551.177 -15.7598 551.237 -15.7598C551.157 -15.6996 551.077 -15.6393 550.996 -15.5791C550.976 -15.6795 550.976 -15.7799 550.956 -15.8803C550.996 -15.8401 551.036 -15.7999 551.057 -15.7397ZM560.533 -6.28296C560.574 -6.2428 560.634 -6.22273 560.674 -6.18257C560.574 -6.20265 560.473 -6.20265 560.373 -6.22273C560.433 -6.30304 560.493 -6.38335 560.553 -6.46366C560.553 -6.38335 560.533 -6.34319 560.533 -6.28296ZM560.533 7.10908C560.533 7.16931 560.553 7.22954 560.553 7.28978C560.493 7.20947 560.433 7.12916 560.373 7.04884C560.473 7.02877 560.574 7.02877 560.674 7.00869C560.634 7.04884 560.574 7.089 560.533 7.10908ZM551.057 16.5859C551.016 16.6261 550.996 16.6863 550.956 16.7264C550.976 16.6261 550.976 16.5257 550.996 16.4253C551.077 16.4855 551.157 16.5457 551.237 16.606C551.177 16.606 551.117 16.5859 551.057 16.5859ZM537.665 16.5859C537.604 16.5859 537.544 16.606 537.484 16.606C537.564 16.5457 537.644 16.4855 537.725 16.4253C537.745 16.5257 537.745 16.6261 537.765 16.7264C537.745 16.6863 537.705 16.6261 537.665 16.5859ZM536.801 3.55527C531.501 2.91277 526.2 2.27027 520.919 1.6077C520.418 1.20614 519.895 0.824661 519.394 0.423101C519.895 0.0215402 520.418 -0.359942 520.919 -0.761503C526.22 -1.42408 531.521 -2.08665 536.801 -2.70907C533.508 -6.90538 530.216 -11.1218 526.943 -15.3381C526.863 -15.9806 526.782 -16.6231 526.702 -17.2456C527.344 -17.1652 527.987 -17.0849 528.609 -17.0046C532.826 -13.7319 537.042 -10.4391 541.238 -7.14631C541.881 -12.4469 542.523 -17.7475 543.186 -23.028C543.588 -23.53 543.969 -24.052 544.371 -24.554C544.772 -24.052 545.154 -23.53 545.555 -23.028C546.218 -17.7274 546.88 -12.4268 547.503 -7.14631C551.699 -10.4391 555.915 -13.7319 560.132 -17.0046C560.774 -17.0849 561.417 -17.1652 562.039 -17.2456C561.959 -16.6031 561.879 -15.9606 561.798 -15.3381C558.526 -11.1218 555.233 -6.90538 551.94 -2.70907C557.241 -2.06658 562.541 -1.42408 567.822 -0.761503C568.324 -0.359942 568.846 0.0215402 569.348 0.423101C568.846 0.824661 568.324 1.20614 567.822 1.6077C562.521 2.27027 557.221 2.93285 551.94 3.55527C555.233 7.75157 558.526 11.968 561.798 16.1843C561.879 16.8268 561.959 17.4693 562.039 18.0918C561.397 18.0114 560.754 17.9311 560.132 17.8508C555.915 14.5781 551.699 11.2853 547.503 7.99251C546.86 13.2931 546.218 18.5937 545.555 23.8742C545.154 24.3762 544.772 24.8982 544.371 25.4002C543.969 24.8982 543.588 24.3762 543.186 23.8742C542.523 18.5736 541.861 13.273 541.238 7.99251C537.042 11.2853 532.826 14.5781 528.609 17.8508C527.967 17.9311 527.324 18.0114 526.702 18.0918C526.782 17.4493 526.863 16.8068 526.943 16.1843C530.216 11.968 533.508 7.75157 536.801 3.55527ZM507.668 0.423101C511.904 3.77613 516.161 7.06892 520.458 10.3216C519.715 15.6623 519.032 21.0031 518.41 26.3639C523.771 25.7415 529.111 25.0588 534.452 24.3159C537.705 28.6126 540.997 32.8892 544.351 37.1056C547.704 32.8892 550.996 28.6126 554.249 24.3159C559.59 25.0588 564.93 25.7415 570.291 26.3639C569.669 21.0031 568.986 15.6623 568.243 10.3216C572.54 7.06892 576.817 3.77613 581.033 0.423101C576.817 -2.92993 572.54 -6.22272 568.243 -9.47536C568.986 -14.8161 569.669 -20.1569 570.291 -25.5177C564.93 -24.8953 559.59 -24.2126 554.249 -23.4697C550.996 -27.7664 547.704 -32.0431 544.351 -36.2594C540.997 -32.023 537.705 -27.7664 534.452 -23.4697C529.111 -24.2126 523.771 -24.8953 518.41 -25.5177C519.032 -20.1569 519.715 -14.8161 520.458 -9.47536C516.161 -6.2428 511.884 -2.92993 507.668 0.423101ZM494.196 21.2038C485.683 14.4777 477.35 7.5508 469.158 0.423101C477.35 -6.7046 485.683 -13.6315 494.196 -20.3577C492.931 -31.1395 491.927 -41.9415 491.184 -52.7636C502.006 -52.0207 512.808 -51.0168 523.59 -49.7519C530.316 -58.2649 537.243 -66.5973 544.371 -74.7892C551.498 -66.5973 558.425 -58.2649 565.151 -49.7519C575.933 -51.0168 586.735 -52.0207 597.557 -52.7636C596.814 -41.9415 595.81 -31.1395 594.546 -20.3577C603.059 -13.6315 611.391 -6.7046 619.583 0.423101C611.391 7.5508 603.059 14.4777 594.546 21.2038C595.81 31.9857 596.814 42.7877 597.557 53.6098C586.735 52.8669 575.933 51.863 565.151 50.5981C558.425 59.1111 551.498 67.4435 544.371 75.6354C537.243 67.4435 530.316 59.1111 523.59 50.5981C512.808 51.863 502.006 52.8669 491.184 53.6098C491.927 42.7676 492.931 31.9657 494.196 21.2038Z" fill="url(#paint3_linear_1_368)" fill-opacity="0.3"/>
<path d="M482.651 0.423077C482.671 2.16986 483.253 3.91665 484.398 5.32211C484.498 5.46266 484.619 5.62328 484.759 5.76383C484.9 5.90438 485.04 6.02484 485.201 6.12523C488.152 8.49443 492.549 8.55467 495.34 5.76383C496.746 4.35837 497.489 2.39072 497.549 0.423077C497.489 -1.56465 496.726 -3.5323 495.34 -4.91768C492.549 -7.70853 488.152 -7.64829 485.201 -5.27908C485.06 -5.17869 484.9 -5.05823 484.759 -4.91768C484.619 -4.77714 484.498 -4.63659 484.398 -4.47596C483.273 -3.0705 482.671 -1.32371 482.651 0.423077ZM500.721 -43.2265C499.496 -41.9817 498.693 -40.3353 498.492 -38.5283C498.452 -38.3476 498.432 -38.1669 498.452 -37.9661C498.452 -37.7653 498.472 -37.5846 498.492 -37.4039C498.894 -33.6292 501.986 -30.4971 505.921 -30.477C507.889 -30.477 509.816 -31.3404 511.262 -32.6856C512.627 -34.1312 513.471 -36.0587 513.471 -38.0263C513.471 -41.9616 510.318 -45.0536 506.544 -45.4552C506.363 -45.4954 506.182 -45.5154 505.982 -45.4954C505.781 -45.4954 505.6 -45.4753 505.419 -45.4552C503.632 -45.2544 501.966 -44.4312 500.721 -43.2265ZM544.371 -61.2968C542.624 -61.2767 540.877 -60.6944 539.472 -59.55C539.331 -59.4496 539.17 -59.3291 539.03 -59.1886C538.889 -59.048 538.769 -58.9075 538.669 -58.7468C536.299 -55.7954 536.239 -51.3983 539.03 -48.6074C540.435 -47.202 542.403 -46.4591 544.371 -46.3989C546.358 -46.4591 548.326 -47.2221 549.711 -48.6074C552.502 -51.3983 552.442 -55.7954 550.073 -58.7468C549.972 -58.8874 549.852 -59.048 549.711 -59.1886C549.571 -59.3291 549.43 -59.4496 549.27 -59.55C547.844 -60.6743 546.097 -61.2767 544.371 -61.2968ZM588 -43.2265C586.755 -44.4513 585.109 -45.2544 583.302 -45.4552C583.121 -45.4954 582.941 -45.5154 582.74 -45.4954C582.539 -45.4954 582.358 -45.4753 582.178 -45.4552C578.403 -45.0536 575.271 -41.9616 575.251 -38.0263C575.251 -36.0587 576.114 -34.1312 577.459 -32.6856C578.905 -31.3203 580.832 -30.477 582.8 -30.477C586.735 -30.477 589.827 -33.6292 590.229 -37.4039C590.269 -37.5846 590.289 -37.7653 590.269 -37.9661C590.269 -38.1669 590.249 -38.3476 590.229 -38.5283C590.028 -40.3152 589.225 -41.9817 588 -43.2265ZM606.07 0.423077C606.05 -1.32371 605.468 -3.0705 604.324 -4.47596C604.223 -4.61651 604.103 -4.77714 603.962 -4.91768C603.822 -5.05823 603.681 -5.17869 603.521 -5.27908C600.569 -7.64829 596.172 -7.70853 593.381 -4.91768C591.976 -3.51222 591.233 -1.54457 591.173 0.423077C591.233 2.4108 591.996 4.37845 593.381 5.76383C596.172 8.55467 600.569 8.49443 603.521 6.12523C603.661 6.02484 603.822 5.90438 603.962 5.76383C604.103 5.62328 604.223 5.48273 604.324 5.32211C605.468 3.89657 606.07 2.14979 606.07 0.423077ZM588 44.0526C589.225 42.8078 590.028 41.1614 590.229 39.3544C590.269 39.1736 590.289 38.9929 590.269 38.7922C590.269 38.5914 590.249 38.4107 590.229 38.23C589.827 34.4553 586.735 31.3231 582.8 31.3031C580.832 31.3031 578.905 32.1664 577.459 33.5116C576.094 34.9573 575.251 36.8848 575.251 38.8524C575.251 42.7877 578.403 45.8797 582.178 46.2813C582.358 46.3214 582.539 46.3415 582.74 46.3214C582.941 46.3214 583.121 46.3013 583.302 46.2813C585.109 46.0805 586.755 45.2774 588 44.0526ZM544.371 62.1228C546.117 62.1027 547.864 61.5205 549.27 60.376C549.41 60.2756 549.571 60.1552 549.711 60.0146C549.852 59.8741 549.972 59.7335 550.073 59.5729C552.442 56.6214 552.502 52.2244 549.711 49.4335C548.306 48.028 546.338 47.2852 544.371 47.2249C542.383 47.2852 540.415 48.0481 539.03 49.4335C536.239 52.2244 536.299 56.6214 538.669 59.5729C538.769 59.7135 538.889 59.8741 539.03 60.0146C539.17 60.1552 539.311 60.2756 539.472 60.376C540.877 61.5205 542.624 62.1228 544.371 62.1228ZM500.721 44.0526C501.966 45.2774 503.612 46.0805 505.419 46.2813C505.6 46.3214 505.781 46.3415 505.982 46.3214C506.182 46.3214 506.363 46.3013 506.544 46.2813C510.318 45.8797 513.451 42.7877 513.471 38.8524C513.471 36.8848 512.607 34.9573 511.262 33.5116C509.816 32.1463 507.889 31.3031 505.921 31.3031C501.986 31.3031 498.894 34.4553 498.492 38.23C498.452 38.4107 498.432 38.5914 498.452 38.7922C498.452 38.9929 498.472 39.1736 498.492 39.3544C498.693 41.1614 499.516 42.8078 500.721 44.0526ZM493.132 0.423077C492.83 2.5915 490.14 4.57923 487.972 2.57142C487.329 1.86869 487.088 1.12581 487.128 0.423077C487.088 -0.279654 487.329 -1.02255 487.972 -1.72528C490.14 -3.73308 492.851 -1.74535 493.132 0.423077ZM508.15 -35.7977C506.403 -34.4725 503.09 -34.9745 502.99 -37.946C503.03 -38.8897 503.391 -39.5924 503.913 -40.0542C504.375 -40.5762 505.078 -40.9376 506.022 -40.9778C508.953 -40.8573 509.475 -37.5445 508.15 -35.7977ZM544.371 -50.816C542.202 -51.1172 540.215 -53.8077 542.222 -55.9761C542.925 -56.6186 543.668 -56.8595 544.371 -56.8194C545.073 -56.8595 545.816 -56.6186 546.519 -55.9761C548.527 -53.8077 546.539 -51.0971 544.371 -50.816ZM580.591 -35.7977C579.266 -37.5445 579.768 -40.8573 582.74 -40.9577C583.683 -40.9176 584.386 -40.5762 584.848 -40.0341C585.37 -39.5723 585.731 -38.8696 585.772 -37.9259C585.651 -34.9946 582.318 -34.4725 580.591 -35.7977ZM595.59 0.423077C595.891 -1.74535 598.581 -3.73308 600.75 -1.72528C601.392 -1.02255 601.633 -0.279654 601.593 0.423077C601.633 1.12581 601.392 1.86869 600.75 2.57142C598.601 4.57923 595.891 2.5915 595.59 0.423077ZM580.591 36.6438C582.338 35.3187 585.651 35.8206 585.752 38.7922C585.711 39.7358 585.37 40.4386 584.828 40.9004C584.366 41.4224 583.663 41.7838 582.72 41.8239C579.768 41.7035 579.266 38.3705 580.591 36.6438ZM544.371 51.6421C546.539 51.9433 548.527 54.6337 546.519 56.8022C545.816 57.4447 545.073 57.6856 544.371 57.6454C543.668 57.6856 542.925 57.4447 542.222 56.8022C540.215 54.6538 542.202 51.9433 544.371 51.6421ZM508.15 36.6438C509.475 38.3906 508.973 41.7035 506.002 41.8039C505.058 41.7838 504.355 41.4224 503.893 40.9004C503.371 40.4386 503.01 39.7358 502.97 38.7922C503.09 35.8206 506.403 35.3187 508.15 36.6438Z" fill="url(#paint4_linear_1_368)" fill-opacity="0.3"/>
</g>
<g clip-path="url(#clip4_1_368)">
<path d="M615.964 321.73C630.125 334.518 644.591 346.878 659.392 358.81C657.378 377.732 655.883 396.714 654.906 415.758C673.95 414.781 692.932 413.286 711.854 411.272C723.787 426.073 736.177 440.57 748.934 454.7C761.721 440.539 774.081 426.073 786.014 411.272C804.935 413.286 823.918 414.781 842.962 415.758C841.985 396.714 840.49 377.732 838.475 358.81C853.277 346.878 867.773 334.487 881.903 321.73C867.743 308.943 853.277 296.583 838.475 284.65C840.49 265.729 841.985 246.746 842.962 227.702C823.918 228.679 804.935 230.174 786.014 232.189C774.112 217.357 761.721 202.891 748.964 188.73C736.177 202.891 723.817 217.357 711.884 232.158C692.963 230.144 673.98 228.649 654.937 227.672C655.913 246.716 657.409 265.698 659.423 284.62C644.591 296.583 630.125 308.943 615.964 321.73ZM724.397 331.893C724.336 331.832 724.244 331.801 724.183 331.74C724.336 331.771 724.488 331.771 724.641 331.801C724.549 331.923 724.458 332.046 724.366 332.168C724.366 332.076 724.366 331.984 724.397 331.893ZM724.397 311.537C724.397 311.445 724.366 311.354 724.366 311.262C724.458 311.384 724.549 311.507 724.641 311.629C724.488 311.659 724.336 311.659 724.183 311.69C724.244 311.659 724.305 311.598 724.397 311.537ZM738.771 297.163C738.832 297.102 738.863 297.01 738.924 296.949C738.893 297.102 738.893 297.254 738.863 297.407C738.741 297.315 738.619 297.224 738.496 297.132C738.619 297.132 738.68 297.132 738.771 297.163ZM759.127 297.163C759.219 297.163 759.31 297.132 759.402 297.132C759.28 297.224 759.158 297.315 759.035 297.407C759.005 297.254 759.005 297.102 758.974 296.949C759.035 297.01 759.097 297.071 759.127 297.163ZM773.532 311.537C773.593 311.598 773.684 311.629 773.745 311.69C773.593 311.659 773.44 311.659 773.288 311.629C773.379 311.507 773.471 311.384 773.562 311.262C773.562 311.384 773.532 311.445 773.532 311.537ZM773.532 331.893C773.532 331.984 773.562 332.076 773.562 332.168C773.471 332.046 773.379 331.923 773.288 331.801C773.44 331.771 773.593 331.771 773.745 331.74C773.684 331.801 773.593 331.862 773.532 331.893ZM759.127 346.298C759.066 346.359 759.035 346.45 758.974 346.511C759.005 346.359 759.005 346.206 759.035 346.054C759.158 346.145 759.28 346.237 759.402 346.328C759.31 346.328 759.219 346.298 759.127 346.298ZM738.771 346.298C738.68 346.298 738.588 346.328 738.496 346.328C738.619 346.237 738.741 346.145 738.863 346.054C738.893 346.206 738.893 346.359 738.924 346.511C738.893 346.45 738.832 346.359 738.771 346.298ZM737.459 326.491C729.402 325.515 721.345 324.538 713.319 323.531C712.556 322.92 711.762 322.341 710.999 321.73C711.762 321.12 712.556 320.54 713.319 319.93C721.376 318.923 729.432 317.915 737.459 316.969C732.454 310.591 727.449 304.182 722.474 297.773C722.352 296.797 722.23 295.82 722.108 294.874C723.085 294.996 724.061 295.118 725.007 295.24C731.416 300.215 737.825 305.22 744.203 310.225C745.18 302.168 746.157 294.111 747.164 286.085C747.774 285.322 748.354 284.528 748.964 283.765C749.575 284.528 750.155 285.322 750.765 286.085C751.772 294.141 752.779 302.198 753.725 310.225C760.104 305.22 766.513 300.215 772.921 295.24C773.898 295.118 774.875 294.996 775.821 294.874C775.699 295.85 775.577 296.827 775.454 297.773C770.48 304.182 765.475 310.591 760.47 316.969C768.527 317.946 776.584 318.923 784.61 319.93C785.373 320.54 786.167 321.12 786.929 321.73C786.167 322.341 785.373 322.92 784.61 323.531C776.553 324.538 768.496 325.545 760.47 326.491C765.475 332.87 770.48 339.278 775.454 345.687C775.577 346.664 775.699 347.641 775.821 348.587C774.844 348.465 773.868 348.342 772.921 348.22C766.513 343.246 760.104 338.241 753.725 333.236C752.749 341.293 751.772 349.35 750.765 357.376C750.155 358.139 749.575 358.932 748.964 359.695C748.354 358.932 747.774 358.139 747.164 357.376C746.157 349.319 745.15 341.262 744.203 333.236C737.825 338.241 731.416 343.246 725.007 348.22C724.031 348.342 723.054 348.465 722.108 348.587C722.23 347.61 722.352 346.633 722.474 345.687C727.449 339.278 732.454 332.87 737.459 326.491ZM693.176 321.73C699.616 326.827 706.086 331.832 712.617 336.776C711.488 344.894 710.45 353.012 709.504 361.16C717.652 360.214 725.77 359.177 733.888 358.047C738.832 364.578 743.837 371.079 748.934 377.488C754.03 371.079 759.035 364.578 763.979 358.047C772.097 359.177 780.215 360.214 788.364 361.16C787.418 353.012 786.38 344.894 785.251 336.776C791.782 331.832 798.282 326.827 804.691 321.73C798.282 316.634 791.782 311.629 785.251 306.685C786.38 298.567 787.418 290.449 788.364 282.3C780.215 283.246 772.097 284.284 763.979 285.413C759.035 278.882 754.03 272.382 748.934 265.973C743.837 272.412 738.832 278.882 733.888 285.413C725.77 284.284 717.652 283.246 709.504 282.3C710.45 290.449 711.488 298.567 712.617 306.685C706.086 311.598 699.585 316.634 693.176 321.73ZM672.698 353.317C659.759 343.093 647.093 332.564 634.642 321.73C647.093 310.896 659.759 300.367 672.698 290.143C670.776 273.755 669.25 257.336 668.121 240.886C684.57 242.016 700.989 243.542 717.378 245.464C727.601 232.524 738.13 219.859 748.964 207.408C759.798 219.859 770.327 232.524 780.551 245.464C796.94 243.542 813.359 242.016 829.808 240.886C828.679 257.336 827.153 273.755 825.23 290.143C838.17 300.367 850.835 310.896 863.287 321.73C850.835 332.564 838.17 343.093 825.23 353.317C827.153 369.705 828.679 386.124 829.808 402.574C813.359 401.445 796.94 399.919 780.551 397.996C770.327 410.936 759.798 423.601 748.964 436.053C738.13 423.601 727.601 410.936 717.378 397.996C700.989 399.919 684.57 401.445 668.121 402.574C669.25 386.094 670.776 369.675 672.698 353.317Z" fill="url(#paint5_linear_1_368)" fill-opacity="0.3"/>
<path d="M655.15 321.73C655.181 324.385 656.066 327.04 657.806 329.177C657.958 329.39 658.141 329.634 658.355 329.848C658.568 330.062 658.782 330.245 659.026 330.397C663.512 333.999 670.196 334.09 674.438 329.848C676.574 327.712 677.704 324.721 677.795 321.73C677.704 318.709 676.544 315.718 674.438 313.612C670.196 309.37 663.512 309.462 659.026 313.063C658.813 313.215 658.568 313.399 658.355 313.612C658.141 313.826 657.958 314.039 657.806 314.284C656.096 316.42 655.181 319.075 655.15 321.73ZM682.617 255.383C680.755 257.275 679.535 259.777 679.23 262.524C679.169 262.799 679.138 263.073 679.169 263.379C679.169 263.684 679.199 263.958 679.23 264.233C679.84 269.971 684.54 274.732 690.521 274.762C693.512 274.762 696.442 273.45 698.639 271.405C700.715 269.208 701.996 266.278 701.996 263.287C701.996 257.305 697.205 252.606 691.468 251.995C691.193 251.934 690.918 251.904 690.613 251.934C690.308 251.934 690.033 251.965 689.758 251.995C687.042 252.3 684.509 253.552 682.617 255.383ZM748.965 227.916C746.309 227.947 743.654 228.832 741.518 230.571C741.304 230.724 741.06 230.907 740.847 231.12C740.633 231.334 740.45 231.548 740.297 231.792C736.696 236.278 736.604 242.962 740.847 247.204C742.983 249.34 745.974 250.469 748.965 250.561C751.986 250.469 754.977 249.31 757.082 247.204C761.325 242.962 761.233 236.278 757.632 231.792C757.479 231.578 757.296 231.334 757.082 231.12C756.869 230.907 756.655 230.724 756.411 230.571C754.244 228.862 751.589 227.947 748.965 227.916ZM815.281 255.383C813.389 253.521 810.887 252.3 808.14 251.995C807.865 251.934 807.591 251.904 807.286 251.934C806.98 251.934 806.706 251.965 806.431 251.995C800.694 252.606 795.933 257.305 795.902 263.287C795.902 266.278 797.214 269.208 799.259 271.405C801.456 273.48 804.386 274.762 807.377 274.762C813.359 274.762 818.059 269.971 818.669 264.233C818.73 263.958 818.761 263.684 818.73 263.379C818.73 263.073 818.699 262.799 818.669 262.524C818.364 259.808 817.143 257.275 815.281 255.383ZM842.748 321.73C842.718 319.075 841.833 316.42 840.093 314.284C839.94 314.07 839.757 313.826 839.544 313.612C839.33 313.399 839.116 313.215 838.872 313.063C834.386 309.462 827.702 309.37 823.46 313.612C821.324 315.748 820.195 318.739 820.103 321.73C820.195 324.751 821.355 327.742 823.46 329.848C827.702 334.09 834.386 333.999 838.872 330.397C839.086 330.245 839.33 330.062 839.544 329.848C839.757 329.634 839.94 329.421 840.093 329.177C841.833 327.01 842.748 324.355 842.748 321.73ZM815.281 388.047C817.143 386.155 818.364 383.652 818.669 380.906C818.73 380.631 818.761 380.356 818.73 380.051C818.73 379.746 818.699 379.471 818.669 379.197C818.059 373.459 813.359 368.698 807.377 368.668C804.386 368.668 801.456 369.98 799.259 372.025C797.184 374.222 795.902 377.152 795.902 380.143C795.902 386.124 800.694 390.824 806.431 391.435C806.706 391.496 806.98 391.526 807.286 391.496C807.591 391.496 807.865 391.465 808.14 391.435C810.887 391.129 813.389 389.909 815.281 388.047ZM748.965 415.514C751.62 415.483 754.275 414.598 756.411 412.859C756.625 412.706 756.869 412.523 757.082 412.309C757.296 412.096 757.479 411.882 757.632 411.638C761.233 407.152 761.325 400.468 757.082 396.226C754.946 394.09 751.955 392.961 748.965 392.869C745.943 392.961 742.952 394.12 740.847 396.226C736.604 400.468 736.696 407.152 740.297 411.638C740.45 411.852 740.633 412.096 740.847 412.309C741.06 412.523 741.274 412.706 741.518 412.859C743.654 414.598 746.309 415.514 748.965 415.514ZM682.617 388.047C684.509 389.909 687.012 391.129 689.758 391.435C690.033 391.496 690.308 391.526 690.613 391.496C690.918 391.496 691.193 391.465 691.468 391.435C697.205 390.824 701.966 386.124 701.996 380.143C701.996 377.152 700.684 374.222 698.639 372.025C696.442 369.95 693.512 368.668 690.521 368.668C684.54 368.668 679.84 373.459 679.23 379.197C679.169 379.471 679.138 379.746 679.169 380.051C679.169 380.356 679.199 380.631 679.23 380.906C679.535 383.652 680.786 386.155 682.617 388.047ZM671.081 321.73C670.623 325.026 666.534 328.047 663.238 324.996C662.261 323.927 661.895 322.798 661.956 321.73C661.895 320.662 662.261 319.533 663.238 318.465C666.534 315.413 670.654 318.434 671.081 321.73ZM693.909 266.675C691.254 268.689 686.218 267.926 686.066 263.409C686.127 261.975 686.676 260.907 687.47 260.205C688.172 259.411 689.24 258.862 690.674 258.801C695.13 258.984 695.923 264.02 693.909 266.675ZM748.965 243.847C745.669 243.389 742.647 239.299 745.699 236.003C746.767 235.027 747.896 234.661 748.965 234.722C750.033 234.661 751.162 235.027 752.23 236.003C755.282 239.299 752.261 243.419 748.965 243.847ZM804.02 266.675C802.006 264.02 802.769 258.984 807.286 258.831C808.72 258.892 809.788 259.411 810.49 260.235C811.283 260.937 811.833 262.005 811.894 263.44C811.711 267.895 806.645 268.689 804.02 266.675ZM826.817 321.73C827.275 318.434 831.365 315.413 834.661 318.465C835.637 319.533 836.004 320.662 835.943 321.73C836.004 322.798 835.637 323.927 834.661 324.996C831.395 328.047 827.275 325.026 826.817 321.73ZM804.02 376.786C806.675 374.771 811.711 375.534 811.863 380.051C811.802 381.486 811.283 382.554 810.459 383.256C809.758 384.049 808.689 384.598 807.255 384.659C802.769 384.476 802.006 379.41 804.02 376.786ZM748.965 399.583C752.261 400.041 755.282 404.13 752.23 407.426C751.162 408.403 750.033 408.769 748.965 408.708C747.896 408.769 746.767 408.403 745.699 407.426C742.647 404.161 745.669 400.041 748.965 399.583ZM693.909 376.786C695.923 379.441 695.16 384.476 690.644 384.629C689.209 384.598 688.141 384.049 687.439 383.256C686.646 382.554 686.096 381.486 686.035 380.051C686.218 375.534 691.254 374.771 693.909 376.786Z" fill="url(#paint6_linear_1_368)" fill-opacity="0.3"/>
</g>
</g>
<defs>
<linearGradient id="paint0_linear_1_368" x1="0.92236" y1="197.435" x2="1334.17" y2="126.208" gradientUnits="userSpaceOnUse">
<stop offset="0.671875" stop-color="#263A3D"/>
<stop offset="1" stop-color="#191919" stop-opacity="0"/>
</linearGradient>
<linearGradient id="paint1_linear_1_368" x1="-156.464" y1="69.6768" x2="245.933" y2="303.714" gradientUnits="userSpaceOnUse">
<stop offset="0.0625" stop-color="white"/>
<stop offset="1" stop-color="white" stop-opacity="0"/>
</linearGradient>
<linearGradient id="paint2_linear_1_368" x1="90.4867" y1="163.84" x2="90.4867" y2="384.585" gradientUnits="userSpaceOnUse">
<stop offset="0.0625" stop-color="white"/>
<stop offset="1" stop-color="white" stop-opacity="0"/>
</linearGradient>
<linearGradient id="paint3_linear_1_368" x1="574.604" y1="-67.913" x2="544.351" y2="87.903" gradientUnits="userSpaceOnUse">
<stop offset="0.0625" stop-color="white"/>
<stop offset="1" stop-color="white" stop-opacity="0"/>
</linearGradient>
<linearGradient id="paint4_linear_1_368" x1="544.361" y1="-61.2968" x2="544.361" y2="62.1228" gradientUnits="userSpaceOnUse">
<stop offset="0.0625" stop-color="white"/>
<stop offset="1" stop-color="white" stop-opacity="0"/>
</linearGradient>
<linearGradient id="paint5_linear_1_368" x1="748.934" y1="188.73" x2="748.934" y2="454.7" gradientUnits="userSpaceOnUse">
<stop offset="0.0625" stop-color="white"/>
<stop offset="1" stop-color="white" stop-opacity="0"/>
</linearGradient>
<linearGradient id="paint6_linear_1_368" x1="748.949" y1="227.916" x2="748.949" y2="415.514" gradientUnits="userSpaceOnUse">
<stop offset="0.0625" stop-color="white"/>
<stop offset="1" stop-color="white" stop-opacity="0"/>
</linearGradient>
<clipPath id="clip0_1_368">
<rect width="1261.9" height="346.973" fill="white" transform="translate(0.922363 0.423096)"/>
</clipPath>
<clipPath id="clip1_1_368">
<rect width="1261.9" height="346.973" fill="white" transform="translate(0.922363 0.423096)"/>
</clipPath>
<clipPath id="clip2_1_368">
<rect width="311" height="313" fill="white" transform="translate(-64.9956 117.73)"/>
</clipPath>
<clipPath id="clip3_1_368">
<rect width="175" height="175" fill="white" transform="translate(456.871 -87.0769)"/>
</clipPath>
<clipPath id="clip4_1_368">
<rect width="266" height="266" fill="white" transform="translate(615.964 188.73)"/>
</clipPath>
</defs>
</svg>
